<svg height="96" viewBox="0 0 96 96" width="96" xmlns="http://www.w3.org/2000/svg"><g fill="#b3b3b3"><path d="m91.774 34.269-4.243-4.243a1.5 1.5 0 0 0 -2.121 0l-35.355 35.355a1.4999 1.4999 0 0 0 -.332.5l-2.447 6.119h-33.523a.754.754 0 0 1 -.753-.753v-39.494a.754.754 0 0 1 .753-.753h8.747a1.5 1.5 0 0 0 1.5-1.5v-6.747a.754.754 0 0 1 .753-.753h11.494a.754.754 0 0 1 .753.753v6.747a1.5 1.5 0 0 0 1.5 1.5h11a1.5 1.5 0 0 0 1.5-1.5v-6.747a.754.754 0 0 1 .753-.753h11.494a.754.754 0 0 1 .753.753v6.747a1.5 1.5 0 0 0 1.5 1.5h8.747a.754.754 0 0 1 .753.753 1.5 1.5 0 0 0 3 0 3.757 3.757 0 0 0 -3.753-3.753h-7.247v-5.247a3.757 3.757 0 0 0 -3.753-3.753h-11.494a3.757 3.757 0 0 0 -3.753 3.753v5.247h-8v-5.247a3.757 3.757 0 0 0 -3.753-3.753h-11.494a3.757 3.757 0 0 0 -3.753 3.753v5.247h-7.247a3.757 3.757 0 0 0 -3.753 3.753v39.494a3.757 3.757 0 0 0 3.753 3.753h33.872a1.49954 1.49954 0 0 0 .311-.033 1.435 1.435 0 0 0 .907-.061l7.071-2.829a1.5 1.5 0 0 0 .5-.332l35.36-35.355a1.5 1.5 0 0 0 0-2.121zm-37.259 35.137-3.536 1.414 1.414-3.536 34.078-34.076 2.122 2.122z"/><path d="m76.5 75h-11.192a1.5 1.5 0 0 1 0-3h9.692v-14a1.5 1.5 0 0 1 3 0v15.5a1.5 1.5 0 0 1 -1.5 1.5z"/></g></svg>