<svg xmlns="http://www.w3.org/2000/svg" id="ImportedIcons" width="96" height="96" viewBox="0 0 96 96"><defs><style>.cls-1{fill:#b3b3b3}</style></defs><path d="M20,34H14a1,1,0,0,1,0-2h6a1,1,0,0,1,0,2Z" class="cls-1"/><path d="M88.322,68.551,84.007,58.205a1.50867,1.50867,0,0,0-.289-.447L37.186,7.976A1.5,1.5,0,0,0,36.141,7.5a1.459,1.459,0,0,0-1.075.4L29.35,13.243a1.5,1.5,0,0,0-.071,2.12L75.811,65.15a1.49988,1.49988,0,0,0,.426.318L85,69.838V79.5a.5.5,0,0,1-.5.5h-74a.5.5,0,0,1-.5-.5V38H44a1,1,0,0,0,0-2H10V29.5a.5.5,0,0,1,.5-.5H34.769a1.5,1.5,0,0,0,0-3H10.5A3.5,3.5,0,0,0,7,29.5v50A3.5,3.5,0,0,0,10.5,83h74A3.5,3.5,0,0,0,88,79.5V70.176A1.5,1.5,0,0,0,88.322,68.551ZM37.835,20.129l1.848-1.848a1,1,0,0,0-1.414-1.414l-1.8,1.8-3.975-4.253,3.525-3.294L80.478,58.684,77.064,62.1Zm40.829,43.2,2.984-2.984L84,65.989Z" class="cls-1"/><path d="M84.5,26H61.231a1.5,1.5,0,1,0,0,3H84.5a.5.5,0,0,1,.5.5V36H69a1,1,0,0,0,0,2H85V51.5a1.5,1.5,0,0,0,3,0v-22A3.5,3.5,0,0,0,84.5,26Z" class="cls-1"/></svg>