<svg id="ImportedIcons" xmlns="http://www.w3.org/2000/svg" width="96" height="96" viewBox="0 0 96 96">
  <defs>
    <style>
      .cls-1 {
        fill: #b3b3b3;
      }
    </style>
  </defs>
  <path class="cls-1" d="M81,74H50.5a1.5,1.5,0,0,1-.445-2.933L74.5,63.48V24.262L54.984,30.919a1.5,1.5,0,0,1-.969-2.839l21.5-7.334a1.5,1.5,0,0,1,1.985,1.42v42.42a1.5,1.5,0,0,1-1.055,1.433L60.393,71H81a.5.5,0,0,0,.5-.5v-38A.5.5,0,0,0,81,32H80a1.5,1.5,0,0,1,0-3h1a3.5,3.5,0,0,1,3.5,3.5v38A3.5,3.5,0,0,1,81,74Z"/>
  <path class="cls-1" d="M45,74H14.5A3.5,3.5,0,0,1,11,70.5v-38A3.5,3.5,0,0,1,14.5,29h1a1.5,1.5,0,0,1,0,3h-1a.5.5,0,0,0-.5.5v38a.5.5,0,0,0,.5.5H35.107L19.055,66.018A1.5,1.5,0,0,1,18,64.585V22.166a1.5,1.5,0,0,1,1.955-1.429l23.269,7.408a1.5,1.5,0,0,1-.77233,2.89888Q42.38182,31.02526,42.314,31L21,24.217V63.48l24.445,7.587A1.5,1.5,0,0,1,45,74Z"/>
  <path class="cls-1" d="M59.535,15.575,50.622,6.846a3.046,3.046,0,0,0-4.241,0l-8.916,8.73a1.50056,1.50056,0,1,0,2.1,2.144L47,10.474V44.517a1.5,1.5,0,0,0,3,0V10.436l7.436,7.282a1.50056,1.50056,0,0,0,2.1-2.144Z"/>
</svg>
